<svg width="256" height="199" viewBox="0 0 256 199" xmlns="http://www.w3.org/2000/svg">
  <path d="M216.856 16.597A208.502 208.502 0 0 0 164.21 0c-2.17 3.843-4.724 9.01-6.477 13.158-19.18-2.879-38.263-2.879-57.14 0-1.753-4.147-4.36-9.315-6.532-13.158A208.058 208.058 0 0 0 41.14 16.597C5.946 70.778-3.53 123.87 1.515 176.47A209.28 209.28 0 0 0 79.91 199c6.274-8.403 11.817-17.36 16.58-26.822a136.55 136.55 0 0 1-25.39-12.25c2.14-1.58 4.23-3.23 6.26-4.94 48.36 22.62 100.58 22.62 148.83 0 2.03 1.71 4.12 3.36 6.26 4.94a136.24 136.24 0 0 1-25.44 12.27c4.76 9.46 10.26 18.42 16.59 26.82a209.18 209.18 0 0 0 78.35-22.49c6.37-66.75-10.75-119.49-45.99-163.88ZM85.72 135.02c-14.27 0-25.79-12.94-25.79-28.88s11.36-28.89 25.79-28.89c14.6 0 26.06 13.1 25.79 28.89 0 15.94-11.36 28.88-25.79 28.88Zm84.84 0c-14.27 0-25.78-12.94-25.78-28.88s11.35-28.89 25.78-28.89c14.6 0 26.06 13.1 25.79 28.89 0 15.94-11.19 28.88-25.79 28.88Z" fill="#5865F2"/>
</svg>
