<svg width="256" height="180" viewBox="0 0 256 180" xmlns="http://www.w3.org/2000/svg">
  <path d="M250.346 28.206c-2.93-10.97-11.53-19.57-22.5-22.5C209.37 0 128 0 128 0S46.63 0 28.154 5.706C17.184 8.636 8.584 17.236 5.654 28.206 0 46.69 0 90 0 90s0 43.31 5.654 61.79c2.93 10.97 11.53 19.57 22.5 22.5C46.63 180 128 180 128 180s81.37 0 99.846-5.71c10.97-2.93 19.57-11.53 22.5-22.5C256 133.31 256 90 256 90s0-43.31-5.654-61.794Z" fill="#FF0000"/>
  <path d="M102 127.14V52.86L166 90l-64 37.14Z" fill="#FFFFFF"/>
</svg>
